<svg xmlns="http://www.w3.org/2000/svg" width="192" height="163" fill="none" viewBox="0 0 192 163">
    <rect width="66.492" height="4.996" fill="#72B01D" rx="2.498"
          transform="rotate(-20.086 161.766 -208.85) skewX(-.172)"/>
    <rect width="39.806" height="2" x="117.365" y="108" fill="#0D0A0B" rx="1"/>
    <rect width="21.771" height="2" x="1.979" y="102.001" fill="#0D0A0B" rx="1"/>
    <rect width="15.834" height="2" x="3.958" y="96.003" fill="#0D0A0B" rx="1"/>
    <rect width="9.896" height="2" x="5.938" y="90.004" fill="#0D0A0B" rx="1"/>
    <rect width="50.47" height="2" y="108" fill="#0D0A0B" rx="1"/>
    <path fill="#F3EFF5" stroke="#0D0A0B" stroke-width="5"
          d="M186.516 78.006c0 16.3-13.149 29.494-29.345 29.494-16.195 0-29.344-13.194-29.344-29.494 0-16.3 13.149-29.494 29.344-29.494 16.196 0 29.345 13.194 29.345 29.494Z"/>
    <rect width="5.938" height="2" x="7.917" y="84.005" fill="#0D0A0B" rx="1"/>
    <path fill="#0D0A0B"
          d="M139.51 91.511a22.384 22.384 0 0 1-1.942-23.961l2.94 1.568a19.026 19.026 0 0 0 1.651 20.368l-2.649 2.025Zm28.959-32.698a22.28 22.28 0 0 1 9.838 12.388 22.395 22.395 0 0 1-.839 15.827l-3.044-1.354a19.037 19.037 0 0 0 .713-13.452 18.94 18.94 0 0 0-8.363-10.53l1.695-2.88Z"/>
    <path fill="#F3EFF5" stroke="#0D0A0B" stroke-width="5"
          d="M80.036 78.006c0 16.3-13.15 29.494-29.345 29.494S21.347 94.306 21.347 78.006c0-16.3 13.149-29.494 29.344-29.494 16.196 0 29.345 13.194 29.345 29.494Z"/>
    <path fill="#0D0A0B"
          d="M29.344 71.904a22.313 22.313 0 0 1 6.641-10.6 22.15 22.15 0 0 1 11.28-5.33l.514 3.305a18.827 18.827 0 0 0-9.588 4.531 18.965 18.965 0 0 0-5.645 9.009l-3.202-.915Zm43.297 2.802a22.384 22.384 0 0 1-3.362 15.485 22.201 22.201 0 0 1-12.752 9.33l-.875-3.228a18.872 18.872 0 0 0 10.84-7.93A19.026 19.026 0 0 0 69.348 75.2l3.292-.495Z"/>
    <rect width="71.947" height="4.978" fill="#3F7D20" rx="2.489" transform="rotate(70.086 62.915 97.322) skewX(.172)"/>
    <path stroke="#454955" stroke-width="5"
          d="M163.356 78.006c0 3.45-2.78 6.226-6.185 6.226s-6.185-2.776-6.185-6.226 2.78-6.225 6.185-6.225 6.185 2.776 6.185 6.225Z"/>
    <rect width="68.026" height="4.985" fill="#72B01D" rx="2.493"
          transform="matrix(.64102 -.76752 .76456 .64455 98.633 72.229)"/>
    <rect width="41.896" height="4.987" fill="#72B01D" rx="2.494"
          transform="matrix(.69988 -.71426 .71098 .70321 52.202 71.793)"/>
    <path stroke="#454955" stroke-width="5"
          d="M56.876 78.006c0 3.45-2.78 6.226-6.185 6.226s-6.185-2.776-6.185-6.226 2.78-6.225 6.185-6.225 6.185 2.776 6.185 6.225Z"/>
    <rect width="48.408" height="4.978" fill="#3F7D20" rx="2.489"
          transform="rotate(-109.914 72.763 5.838) skewX(.172)"/>
    <path fill="#F3EFF5" stroke="#0D0A0B" stroke-width="5"
          d="M107.9 82.005c0 5.257-4.239 9.498-9.442 9.498s-9.442-4.241-9.442-9.498c0-5.256 4.239-9.497 9.442-9.497s9.442 4.24 9.442 9.497Z"/>
    <rect width="23.905" height="4.996" fill="#454955" rx="2.498"
          transform="matrix(.90464 -.42619 .42291 .90617 66.62 34.183)"/>
    <rect width="23.905" height="4.996" fill="#0D0A0B" rx="2.498"
          transform="matrix(.90464 -.42619 .42291 .90617 118.367 10.188)"/>
    <rect width="22.995" height="4.976" fill="#72B01D" rx="2.488"
          transform="rotate(-85.023 103.371 -.074) skewX(-.047)"/>
    <rect width="19.906" height="4.999" fill="#0D0A0B" rx="2.5" transform="rotate(10.046 -508.63 539.926) skewX(.092)"/>
    <path fill="#000"
          d="M16.628 156c.131 0 .262-.131.392-.392.131-.261.197-.691.197-1.288v-13.44c0-.597-.066-1.017-.197-1.26-.13-.261-.26-.401-.392-.42h10.473c1.456 0 2.594.168 3.416.504.82.336 1.4.821 1.735 1.456.337.616.505 1.344.505 2.184 0 .672-.122 1.241-.364 1.708a2.903 2.903 0 0 1-.869 1.064 4.326 4.326 0 0 1-1.064.588v.056c1.214.28 2.129.784 2.745 1.512.616.709.924 1.661.924 2.856 0 .803-.16 1.577-.476 2.324-.318.747-.906 1.363-1.764 1.848-.84.467-2.063.7-3.668.7H16.628Zm6.02-3.108h4.2c1.065 0 1.82-.149 2.268-.448.467-.317.7-.821.7-1.512 0-.653-.252-1.157-.755-1.512-.505-.373-1.335-.56-2.492-.56h-3.892c-.56 0-.896.037-1.008.112-.094.075-.14.327-.14.756v2.324c0 .411.046.653.14.728.111.075.438.112.98.112Zm.029-6.888h3.303c.896 0 1.531-.149 1.904-.448.392-.317.588-.784.588-1.4 0-.616-.186-1.073-.56-1.372-.354-.299-.989-.448-1.903-.448h-3.36c-.56 0-.887.037-.98.112-.094.056-.14.299-.14.728v1.988c0 .411.046.653.14.728.111.075.447.112 1.008.112ZM36.203 156c.13 0 .261-.131.392-.392.13-.261.196-.691.196-1.288v-9.744c0-.597-.066-1.027-.196-1.288-.112-.261-.234-.392-.364-.392h4.536v11.424c0 .597.056 1.027.168 1.288.13.261.261.392.392.392h-5.124Zm2.268-15.232c-.691 0-1.242-.187-1.652-.56-.411-.373-.616-.887-.616-1.54s.196-1.167.588-1.54c.41-.373.97-.56 1.68-.56.709 0 1.26.187 1.652.56.41.373.616.887.616 1.54s-.206 1.167-.616 1.54c-.392.373-.943.56-1.652.56Zm12.584 15.512c-1.941 0-3.472-.299-4.592-.896-1.101-.597-1.876-1.409-2.324-2.436-.448-1.027-.672-2.184-.672-3.472 0-2.277.616-3.985 1.848-5.124 1.25-1.139 3.07-1.708 5.46-1.708 1.25 0 2.39.093 3.416.28 1.045.187 1.81.364 2.296.532v.84l.56 2.996c-.41-.392-1.157-.793-2.24-1.204-1.064-.429-2.343-.644-3.836-.644-.803 0-1.475.149-2.016.448-.523.28-.915.719-1.176 1.316-.243.597-.364 1.363-.364 2.296 0 .915.14 1.661.42 2.24.28.579.737.999 1.372 1.26.635.261 1.475.392 2.52.392 1.325 0 2.417-.168 3.276-.504.877-.355 1.465-.7 1.764-1.036v.84l.28 2.24c-.355.299-1.055.597-2.1.896-1.027.299-2.324.448-3.892.448Zm8.671 6.552c-1.12 0-2.007-.112-2.66-.336-.653-.224-1.073-.439-1.26-.644l.56-4.34v-.84c.224.485.532.989.924 1.512a5.5 5.5 0 0 0 1.316 1.316c.504.355 1.027.532 1.568.532.373 0 .71-.084 1.008-.252.317-.149.607-.392.868-.728.28-.336.55-.756.812-1.26.373-.747.607-1.26.7-1.54-.112-.149-.298-.495-.56-1.036-.242-.541-.541-1.195-.896-1.96-.336-.784-.7-1.605-1.092-2.464-.373-.877-.737-1.727-1.092-2.548a89.365 89.365 0 0 0-.924-2.184 78.219 78.219 0 0 0-.588-1.4c-.261-.635-.522-1.083-.784-1.344-.28-.28-.494-.42-.644-.42h5.74c-.093 0-.159.131-.196.392-.037.261.028.719.196 1.372.093.355.243.859.448 1.512.206.635.439 1.335.7 2.1.28.765.56 1.54.84 2.324.299.784.57 1.503.812 2.156h.028a91.8 91.8 0 0 0 .812-2.24c.299-.821.588-1.624.868-2.408.299-.784.55-1.484.756-2.1.224-.616.392-1.083.504-1.4.206-.635.29-1.073.252-1.316-.037-.261-.121-.392-.252-.392h5.572c-.15 0-.355.131-.616.392-.242.243-.476.672-.7 1.288l-.644 1.652c-.299.765-.653 1.643-1.064 2.632-.41.989-.84 2.007-1.288 3.052a124.069 124.069 0 0 1-1.316 2.968c-.41.915-.775 1.671-1.092 2.268-.635 1.232-1.297 2.268-1.988 3.108-.69.84-1.484 1.475-2.38 1.904-.896.448-1.978.672-3.248.672Zm21.626-6.552c-1.942 0-3.472-.299-4.592-.896-1.102-.597-1.876-1.409-2.324-2.436-.448-1.027-.672-2.184-.672-3.472 0-2.277.616-3.985 1.848-5.124 1.25-1.139 3.07-1.708 5.46-1.708 1.25 0 2.39.093 3.416.28 1.045.187 1.81.364 2.296.532v.84l.56 2.996c-.41-.392-1.157-.793-2.24-1.204-1.064-.429-2.343-.644-3.836-.644-.803 0-1.475.149-2.016.448-.523.28-.915.719-1.176 1.316-.243.597-.364 1.363-.364 2.296 0 .915.14 1.661.42 2.24.28.579.737.999 1.372 1.26.634.261 1.474.392 2.52.392 1.325 0 2.417-.168 3.276-.504.877-.355 1.465-.7 1.764-1.036v.84l.28 2.24c-.355.299-1.055.597-2.1.896-1.027.299-2.324.448-3.892.448Zm8.503-.28c.13 0 .261-.131.392-.392.13-.261.196-.691.196-1.288v-15.96c0-.597-.065-1.027-.196-1.288-.112-.261-.233-.392-.364-.392 1.232 0 2.23-.056 2.996-.168.784-.131 1.297-.261 1.54-.392v18.2c0 .597.056 1.027.168 1.288.13.261.261.392.392.392h-5.124Zm14.986.28c-1.475 0-2.707-.149-3.696-.448-.971-.317-1.746-.765-2.324-1.344a5.063 5.063 0 0 1-1.232-2.156c-.243-.84-.364-1.792-.364-2.856 0-2.109.588-3.78 1.764-5.012 1.176-1.232 2.977-1.848 5.404-1.848 1.418 0 2.566.196 3.444.588.896.392 1.577.915 2.044 1.568.466.653.784 1.381.952 2.184.186.784.28 1.577.28 2.38v1.316c0-.056-.262-.112-.784-.168-.504-.075-1.363-.112-2.576-.112h-6.496c0 1.027.308 1.801.924 2.324.634.504 1.661.756 3.08.756 1.194 0 2.258-.14 3.192-.42.952-.299 1.642-.579 2.072-.84v.84l.28 2.128c-.355.243-1.036.495-2.044.756-1.008.243-2.315.364-3.92.364Zm-2.548-8.316h4.844a2.78 2.78 0 0 0-.28-1.204 2.065 2.065 0 0 0-.84-.952c-.392-.261-.934-.392-1.624-.392-.691 0-1.251.103-1.68.308-.411.205-.719.457-.924.756a1.72 1.72 0 0 0-.28.924c0 .187.056.327.168.42.112.093.317.14.616.14ZM120.399 156c.13 0 .252-.131.364-.392.13-.261.196-.691.196-1.288v-13.44c0-.597-.066-1.017-.196-1.26-.131-.261-.262-.401-.392-.42h9.184c1.642 0 2.949.205 3.92.616.989.411 1.698 1.017 2.128 1.82.448.784.672 1.764.672 2.94 0 .84-.159 1.587-.476 2.24a4.118 4.118 0 0 1-1.26 1.596 5.357 5.357 0 0 1-1.82.896v.084c.746.299 1.53.887 2.352 1.764.821.859 1.558 1.82 2.212 2.884.429.691.821 1.185 1.176 1.484.354.299.625.457.812.476h-7.056c.224-.019.401-.14.532-.364.149-.243.102-.635-.14-1.176-.392-.896-.868-1.671-1.428-2.324a5.587 5.587 0 0 0-1.96-1.484c-.728-.355-1.568-.532-2.52-.532h-.308c-.579 0-.915.047-1.008.14-.094.093-.14.327-.14.7v3.36c0 .597.065 1.027.196 1.288.13.261.261.392.392.392h-5.432Zm5.992-8.708h2.296c1.176 0 2.025-.205 2.548-.616.522-.429.784-1.129.784-2.1 0-.429-.094-.812-.28-1.148-.187-.336-.504-.597-.952-.784-.43-.187-1.036-.28-1.82-.28h-2.576c-.579 0-.915.028-1.008.084-.094.056-.14.271-.14.644v3.444c0 .373.046.597.14.672.093.056.429.084 1.008.084ZM140.492 156c.13 0 .261-.131.392-.392.13-.261.196-.691.196-1.288v-9.744c0-.597-.066-1.027-.196-1.288-.112-.261-.234-.392-.364-.392h4.536v11.424c0 .597.056 1.027.168 1.288.13.261.261.392.392.392h-5.124Zm2.268-15.232c-.691 0-1.242-.187-1.652-.56-.411-.373-.616-.887-.616-1.54s.196-1.167.588-1.54c.41-.373.97-.56 1.68-.56.709 0 1.26.187 1.652.56.41.373.616.887.616 1.54s-.206 1.167-.616 1.54c-.392.373-.943.56-1.652.56Zm11.464 15.512c-1.661 0-2.968-.299-3.92-.896a4.898 4.898 0 0 1-1.988-2.436c-.373-1.027-.56-2.184-.56-3.472 0-1.307.187-2.473.56-3.5a4.898 4.898 0 0 1 1.988-2.436c.952-.616 2.259-.924 3.92-.924.56 0 1.064.047 1.512.14.467.093.877.224 1.232.392.373.149.7.345.98.588l.056-.028-.056-.532v-4.816c0-.597-.065-1.017-.196-1.26-.112-.261-.233-.401-.364-.42h4.536v17.64c0 .597.056 1.027.168 1.288.131.261.261.392.392.392h-4.536v-.364l.084-.532-.084-.028c-.28.243-.607.457-.98.644a5.841 5.841 0 0 1-1.26.392 6.12 6.12 0 0 1-1.484.168Zm.476-2.828c.616 0 1.129-.093 1.54-.28a2.386 2.386 0 0 0 1.008-.784c.261-.355.439-.775.532-1.26a7.619 7.619 0 0 0 .168-1.652c0-.597-.056-1.139-.168-1.624-.112-.504-.289-.933-.532-1.288a2.24 2.24 0 0 0-1.008-.84c-.411-.205-.924-.308-1.54-.308-.896 0-1.624.308-2.184.924-.541.616-.812 1.671-.812 3.164 0 .989.121 1.773.364 2.352s.588.989 1.036 1.232c.448.243.98.364 1.596.364Zm17.652 2.828c-1.474 0-2.706-.149-3.696-.448-.97-.317-1.745-.765-2.324-1.344a5.072 5.072 0 0 1-1.232-2.156c-.242-.84-.364-1.792-.364-2.856 0-2.109.588-3.78 1.764-5.012 1.176-1.232 2.978-1.848 5.404-1.848 1.419 0 2.567.196 3.444.588.896.392 1.578.915 2.044 1.568.467.653.784 1.381.952 2.184.187.784.28 1.577.28 2.38v1.316c0-.056-.261-.112-.784-.168-.504-.075-1.362-.112-2.576-.112h-6.496c0 1.027.308 1.801.924 2.324.635.504 1.662.756 3.08.756 1.195 0 2.259-.14 3.192-.42.952-.299 1.643-.579 2.072-.84v.84l.28 2.128c-.354.243-1.036.495-2.044.756-1.008.243-2.314.364-3.92.364Zm-2.548-8.316h4.844c0-.411-.093-.812-.28-1.204a2.065 2.065 0 0 0-.84-.952c-.392-.261-.933-.392-1.624-.392-.69 0-1.25.103-1.68.308-.41.205-.718.457-.924.756-.186.299-.28.607-.28.924 0 .187.056.327.168.42.112.093.318.14.616.14Z"/>
</svg>
