<svg xmlns="http://www.w3.org/2000/svg" width="190" height="110" fill="none" viewBox="0 0 190 110">
    <rect width="66.798" height="4.999" fill="#72B01D" rx="2.5"
          transform="rotate(-19.991 162.57 -211.182) skewX(.019)"/>
    <rect width="40.013" height="2" x="117.977" y="108" fill="#0D0A0B" rx="1"/>
    <rect width="21.885" height="2" x="1.99" y="102.001" fill="#0D0A0B" rx="1"/>
    <rect width="15.916" height="2" x="3.979" y="96.003" fill="#0D0A0B" rx="1"/>
    <rect width="9.948" height="2" x="5.969" y="90.004" fill="#0D0A0B" rx="1"/>
    <rect width="50.733" height="2" y="108" fill="#0D0A0B" rx="1"/>
    <path fill="#F3EFF5" stroke="#0D0A0B" stroke-width="5"
          d="M187.5 78.006c0 16.288-13.211 29.494-29.51 29.494-16.3 0-29.511-13.206-29.511-29.494s13.211-29.494 29.511-29.494c16.299 0 29.51 13.206 29.51 29.494Z"/>
    <rect width="5.969" height="2" x="7.958" y="84.005" fill="#0D0A0B" rx="1"/>
    <path fill="#0D0A0B"
          d="M140.237 91.511a22.29 22.29 0 0 1-1.953-23.96l2.956 1.567a18.943 18.943 0 0 0 1.66 20.367l-2.663 2.026Zm29.11-32.698a22.288 22.288 0 0 1 9.045 28.215l-3.06-1.353a18.946 18.946 0 0 0-7.689-23.983l1.704-2.88Z"/>
    <path fill="#F3EFF5" stroke="#0D0A0B" stroke-width="5"
          d="M80.466 78.006c0 16.288-13.211 29.494-29.51 29.494-16.3 0-29.51-13.206-29.51-29.494s13.21-29.494 29.51-29.494c16.299 0 29.51 13.206 29.51 29.494Z"/>
    <path fill="#0D0A0B"
          d="M29.497 71.904a22.298 22.298 0 0 1 6.676-10.6 22.315 22.315 0 0 1 11.339-5.33l.516 3.305a18.968 18.968 0 0 0-15.313 13.54l-3.218-.915Zm43.523 2.802a22.29 22.29 0 0 1-3.38 15.485 22.31 22.31 0 0 1-12.818 9.33l-.88-3.228a18.963 18.963 0 0 0 10.896-7.93A18.946 18.946 0 0 0 69.71 75.2l3.31-.495Z"/>
    <rect width="71.991" height="5.001" fill="#3F7D20" rx="2.501"
          transform="rotate(69.991 63.255 97.984) skewX(-.019)"/>
    <path stroke="#454955" stroke-width="5"
          d="M164.22 78.006a6.228 6.228 0 0 1-6.23 6.226 6.228 6.228 0 0 1-6.23-6.226 6.228 6.228 0 0 1 6.23-6.225 6.228 6.228 0 0 1 6.23 6.225Z"/>
    <rect width="68.172" height="5.001" fill="#72B01D" rx="2.5" transform="rotate(-49.986 127.047 -70.23) skewX(.029)"/>
    <rect width="42.003" height="5" fill="#72B01D" rx="2.5" transform="rotate(-45.434 111.98 -26.772) skewX(.029)"/>
    <path stroke="#454955" stroke-width="5"
          d="M57.185 78.006a6.228 6.228 0 0 1-6.23 6.226 6.228 6.228 0 0 1-6.23-6.226 6.228 6.228 0 0 1 6.23-6.225 6.228 6.228 0 0 1 6.23 6.225Z"/>
    <rect width="48.437" height="5.001" fill="#3F7D20" rx="2.501"
          transform="rotate(-110.009 72.955 5.727) skewX(-.019)"/>
    <path fill="#F3EFF5" stroke="#0D0A0B" stroke-width="5"
          d="M108.475 82.005c0 5.245-4.254 9.498-9.504 9.498s-9.504-4.254-9.504-9.498 4.254-9.497 9.504-9.497 9.504 4.253 9.504 9.497Z"/>
    <rect width="24.006" height="5" fill="#454955" rx="2.5" transform="rotate(-25.111 110.225 -133.25) skewX(.022)"/>
    <rect width="24.006" height="5" fill="#0D0A0B" rx="2.5" transform="rotate(-25.111 82.363 -262.028) skewX(.022)"/>
    <rect width="22.996" height="5.002" fill="#72B01D" rx="2.501"
          transform="rotate(-84.997 103.643 -.366) skewX(.005)"/>
    <rect width="20.006" height="5" fill="#0D0A0B" rx="2.5" transform="rotate(9.995 -511.233 545.016) skewX(-.01)"/>
</svg>
