<svg xmlns="http://www.w3.org/2000/svg" width="322" height="64" fill="none" viewBox="0 0 322 64">
    <path fill="#000"
          d="M145.136 25c.131 0 .262-.13.392-.392.131-.261.196-.69.196-1.288V9.88c0-.597-.065-1.017-.196-1.26-.13-.261-.261-.401-.392-.42h10.472c1.456 0 2.595.168 3.416.504.822.336 1.4.821 1.736 1.456.336.616.504 1.344.504 2.184 0 .672-.121 1.241-.364 1.708a2.901 2.901 0 0 1-.868 1.064 4.307 4.307 0 0 1-1.064.588v.056c1.214.28 2.128.784 2.744 1.512.616.71.924 1.661.924 2.856 0 .803-.158 1.577-.476 2.324-.317.747-.905 1.363-1.764 1.848-.84.467-2.062.7-3.668.7h-11.592Zm6.02-3.108h4.2c1.064 0 1.82-.15 2.268-.448.467-.317.7-.821.7-1.512 0-.653-.252-1.157-.756-1.512-.504-.373-1.334-.56-2.492-.56h-3.892c-.56 0-.896.037-1.008.112-.093.075-.14.327-.14.756v2.324c0 .41.047.653.14.728.112.075.439.112.98.112Zm.028-6.888h3.304c.896 0 1.531-.15 1.904-.448.392-.317.588-.784.588-1.4 0-.616-.186-1.073-.56-1.372-.354-.299-.989-.448-1.904-.448h-3.36c-.56 0-.886.037-.98.112-.093.056-.14.299-.14.728v1.988c0 .41.047.653.14.728.112.075.448.112 1.008.112ZM164.711 25c.13 0 .261-.13.392-.392.13-.261.196-.69.196-1.288v-9.744c0-.597-.066-1.027-.196-1.288-.112-.261-.234-.392-.364-.392h4.536V23.32c0 .597.056 1.027.168 1.288.13.261.261.392.392.392h-5.124Zm2.268-15.232c-.691 0-1.242-.187-1.652-.56-.411-.373-.616-.887-.616-1.54s.196-1.167.588-1.54c.41-.373.97-.56 1.68-.56.709 0 1.26.187 1.652.56.41.373.616.887.616 1.54s-.206 1.167-.616 1.54c-.392.373-.943.56-1.652.56Zm12.584 15.512c-1.942 0-3.472-.299-4.592-.896-1.102-.597-1.876-1.41-2.324-2.436-.448-1.027-.672-2.184-.672-3.472 0-2.277.616-3.985 1.848-5.124 1.25-1.139 3.07-1.708 5.46-1.708 1.25 0 2.389.093 3.416.28 1.045.187 1.81.364 2.296.532v.84l.56 2.996c-.411-.392-1.158-.793-2.24-1.204-1.064-.43-2.343-.644-3.836-.644-.803 0-1.475.15-2.016.448-.523.28-.915.719-1.176 1.316-.243.597-.364 1.363-.364 2.296 0 .915.14 1.661.42 2.24.28.579.737.999 1.372 1.26.634.261 1.474.392 2.52.392 1.325 0 2.417-.168 3.276-.504.877-.355 1.465-.7 1.764-1.036v.84l.28 2.24c-.355.299-1.055.597-2.1.896-1.027.299-2.324.448-3.892.448Zm8.671 6.552c-1.12 0-2.007-.112-2.66-.336-.653-.224-1.073-.439-1.26-.644l.56-4.34v-.84c.224.485.532.99.924 1.512a5.5 5.5 0 0 0 1.316 1.316c.504.355 1.027.532 1.568.532.373 0 .709-.084 1.008-.252.317-.15.607-.392.868-.728.28-.336.551-.756.812-1.26.373-.747.607-1.26.7-1.54-.112-.15-.299-.495-.56-1.036-.243-.541-.541-1.195-.896-1.96-.336-.784-.7-1.605-1.092-2.464-.373-.877-.737-1.727-1.092-2.548a88.375 88.375 0 0 0-.924-2.184 72.596 72.596 0 0 0-.588-1.4c-.261-.635-.523-1.083-.784-1.344-.28-.28-.495-.42-.644-.42h5.74c-.093 0-.159.13-.196.392-.037.261.028.719.196 1.372.093.355.243.859.448 1.512.205.635.439 1.335.7 2.1.28.765.56 1.54.84 2.324.299.784.569 1.503.812 2.156h.028c.261-.69.532-1.437.812-2.24.299-.821.588-1.624.868-2.408.299-.784.551-1.484.756-2.1.224-.616.392-1.083.504-1.4.205-.635.289-1.073.252-1.316-.037-.261-.121-.392-.252-.392h5.572c-.149 0-.355.13-.616.392-.243.243-.476.672-.7 1.288l-.644 1.652c-.299.765-.653 1.643-1.064 2.632-.411.99-.84 2.007-1.288 3.052a125.282 125.282 0 0 1-1.316 2.968c-.411.915-.775 1.67-1.092 2.268-.635 1.232-1.297 2.268-1.988 3.108-.691.84-1.484 1.475-2.38 1.904-.896.448-1.979.672-3.248.672Zm21.626-6.552c-1.942 0-3.472-.299-4.592-.896-1.102-.597-1.876-1.41-2.324-2.436-.448-1.027-.672-2.184-.672-3.472 0-2.277.616-3.985 1.848-5.124 1.25-1.139 3.07-1.708 5.46-1.708 1.25 0 2.389.093 3.416.28 1.045.187 1.81.364 2.296.532v.84l.56 2.996c-.411-.392-1.158-.793-2.24-1.204-1.064-.43-2.343-.644-3.836-.644-.803 0-1.475.15-2.016.448-.523.28-.915.719-1.176 1.316-.243.597-.364 1.363-.364 2.296 0 .915.14 1.661.42 2.24.28.579.737.999 1.372 1.26.634.261 1.474.392 2.52.392 1.325 0 2.417-.168 3.276-.504.877-.355 1.465-.7 1.764-1.036v.84l.28 2.24c-.355.299-1.055.597-2.1.896-1.027.299-2.324.448-3.892.448Zm8.503-.28c.131 0 .261-.13.392-.392.131-.261.196-.69.196-1.288V7.36c0-.597-.065-1.027-.196-1.288-.112-.261-.233-.392-.364-.392 1.232 0 2.231-.056 2.996-.168.784-.13 1.297-.261 1.54-.392v18.2c0 .597.056 1.027.168 1.288.131.261.261.392.392.392h-5.124Zm14.986.28c-1.475 0-2.707-.15-3.696-.448-.971-.317-1.746-.765-2.324-1.344a5.053 5.053 0 0 1-1.232-2.156c-.243-.84-.364-1.792-.364-2.856 0-2.11.588-3.78 1.764-5.012 1.176-1.232 2.977-1.848 5.404-1.848 1.418 0 2.566.196 3.444.588.896.392 1.577.915 2.044 1.568.466.653.784 1.381.952 2.184.186.784.28 1.577.28 2.38v1.316c0-.056-.262-.112-.784-.168-.504-.075-1.363-.112-2.576-.112h-6.496c0 1.027.308 1.801.924 2.324.634.504 1.661.756 3.08.756 1.194 0 2.258-.14 3.192-.42.952-.299 1.642-.579 2.072-.84v.84l.28 2.128c-.355.243-1.036.495-2.044.756-1.008.243-2.315.364-3.92.364Zm-2.548-8.316h4.844c0-.41-.094-.812-.28-1.204a2.063 2.063 0 0 0-.84-.952c-.392-.261-.934-.392-1.624-.392-.691 0-1.251.103-1.68.308-.411.205-.719.457-.924.756a1.72 1.72 0 0 0-.28.924c0 .187.056.327.168.42.112.093.317.14.616.14ZM248.907 25c.13 0 .252-.13.364-.392.13-.261.196-.69.196-1.288V9.88c0-.597-.066-1.017-.196-1.26-.131-.261-.262-.401-.392-.42h9.184c1.642 0 2.949.205 3.92.616.989.41 1.698 1.017 2.128 1.82.448.784.672 1.764.672 2.94 0 .84-.159 1.587-.476 2.24a4.113 4.113 0 0 1-1.26 1.596c-.542.41-1.148.71-1.82.896v.084c.746.299 1.53.887 2.352 1.764a17.15 17.15 0 0 1 2.212 2.884c.429.69.821 1.185 1.176 1.484.354.299.625.457.812.476h-7.056c.224-.019.401-.14.532-.364.149-.243.102-.635-.14-1.176-.392-.896-.868-1.67-1.428-2.324a5.583 5.583 0 0 0-1.96-1.484c-.728-.355-1.568-.532-2.52-.532h-.308c-.579 0-.915.047-1.008.14-.094.093-.14.327-.14.7v3.36c0 .597.065 1.027.196 1.288.13.261.261.392.392.392h-5.432Zm5.992-8.708h2.296c1.176 0 2.025-.205 2.548-.616.522-.43.784-1.13.784-2.1 0-.43-.094-.812-.28-1.148-.187-.336-.504-.597-.952-.784-.43-.187-1.036-.28-1.82-.28h-2.576c-.579 0-.915.028-1.008.084-.094.056-.14.27-.14.644v3.444c0 .373.046.597.14.672.093.056.429.084 1.008.084ZM269 25c.13 0 .261-.13.392-.392.13-.261.196-.69.196-1.288v-9.744c0-.597-.066-1.027-.196-1.288-.112-.261-.234-.392-.364-.392h4.536V23.32c0 .597.056 1.027.168 1.288.13.261.261.392.392.392H269Zm2.268-15.232c-.691 0-1.242-.187-1.652-.56-.411-.373-.616-.887-.616-1.54s.196-1.167.588-1.54c.41-.373.97-.56 1.68-.56.709 0 1.26.187 1.652.56.41.373.616.887.616 1.54s-.206 1.167-.616 1.54c-.392.373-.943.56-1.652.56Zm11.464 15.512c-1.662 0-2.968-.299-3.92-.896a4.896 4.896 0 0 1-1.988-2.436c-.374-1.027-.56-2.184-.56-3.472 0-1.307.186-2.473.56-3.5a4.896 4.896 0 0 1 1.988-2.436c.952-.616 2.258-.924 3.92-.924.56 0 1.064.047 1.512.14.466.093.877.224 1.232.392.373.15.7.345.98.588l.056-.028-.056-.532V7.36c0-.597-.066-1.017-.196-1.26-.112-.261-.234-.401-.364-.42h4.536v17.64c0 .597.056 1.027.168 1.288.13.261.261.392.392.392h-4.536v-.364l.084-.532-.084-.028c-.28.243-.607.457-.98.644a5.894 5.894 0 0 1-1.26.392 6.12 6.12 0 0 1-1.484.168Zm.476-2.828c.616 0 1.129-.093 1.54-.28a2.384 2.384 0 0 0 1.008-.784c.261-.355.438-.775.532-1.26a7.617 7.617 0 0 0 .168-1.652c0-.597-.056-1.139-.168-1.624a3.68 3.68 0 0 0-.532-1.288 2.236 2.236 0 0 0-1.008-.84c-.411-.205-.924-.308-1.54-.308-.896 0-1.624.308-2.184.924-.542.616-.812 1.67-.812 3.164 0 .99.121 1.773.364 2.352.242.579.588.99 1.036 1.232.448.243.98.364 1.596.364Zm17.652 2.828c-1.474 0-2.706-.15-3.696-.448-.97-.317-1.745-.765-2.324-1.344a5.074 5.074 0 0 1-1.232-2.156c-.242-.84-.364-1.792-.364-2.856 0-2.11.588-3.78 1.764-5.012 1.176-1.232 2.978-1.848 5.404-1.848 1.419 0 2.567.196 3.444.588.896.392 1.578.915 2.044 1.568a5.73 5.73 0 0 1 .952 2.184c.187.784.28 1.577.28 2.38v1.316c0-.056-.261-.112-.784-.168-.504-.075-1.362-.112-2.576-.112h-6.496c0 1.027.308 1.801.924 2.324.635.504 1.662.756 3.08.756 1.195 0 2.259-.14 3.192-.42.952-.299 1.643-.579 2.072-.84v.84l.28 2.128c-.354.243-1.036.495-2.044.756-1.008.243-2.314.364-3.92.364Zm-2.548-8.316h4.844c0-.41-.093-.812-.28-1.204a2.063 2.063 0 0 0-.84-.952c-.392-.261-.933-.392-1.624-.392-.69 0-1.25.103-1.68.308-.41.205-.718.457-.924.756-.186.299-.28.607-.28.924 0 .187.056.327.168.42.112.093.318.14.616.14Z"/>
    <rect width="39.316" height="2.913" fill="#72B01D" rx="1.457"
          transform="matrix(.94117 -.33794 .34614 .93818 48.331 24.933)"/>
    <rect width="23.587" height="1.164" x="69.544" y="62.837" fill="#0D0A0B" rx=".582"/>
    <rect width="12.9" height="1.164" x="1.173" y="59.346" fill="#0D0A0B" rx=".582"/>
    <rect width="9.382" height="1.164" x="2.345" y="55.856" fill="#0D0A0B" rx=".582"/>
    <rect width="5.864" height="1.164" x="3.518" y="52.366" fill="#0D0A0B" rx=".582"/>
    <rect width="29.906" height="1.164" y="62.837" fill="#0D0A0B" rx=".582"/>
    <path fill="#F3EFF5" stroke="#0D0A0B" stroke-width="3"
          d="M110.5 45.385c0 9.433-7.757 17.115-17.37 17.115-9.611 0-17.368-7.682-17.368-17.115 0-9.433 7.757-17.114 17.369-17.114S110.5 35.952 110.5 45.385Z"/>
    <rect width="3.518" height="1.164" x="4.691" y="48.876" fill="#0D0A0B" rx=".582"/>
    <path fill="#0D0A0B"
          d="M82.666 53.243a12.827 12.827 0 0 1-1.151-13.941l1.742.913a10.903 10.903 0 0 0 .979 11.85l-1.57 1.178Zm17.159-19.025a13.007 13.007 0 0 1 5.83 7.208 12.812 12.812 0 0 1-.497 9.209l-1.804-.788a10.89 10.89 0 0 0 .422-7.827 11.053 11.053 0 0 0-4.955-6.127l1.004-1.675Z"/>
    <path fill="#F3EFF5" stroke="#0D0A0B" stroke-width="3"
          d="M47.406 45.385c0 9.433-7.757 17.115-17.37 17.115-9.611 0-17.369-7.682-17.369-17.115 0-9.433 7.758-17.114 17.37-17.114 9.612 0 17.369 7.681 17.369 17.114Z"/>
    <path fill="#0D0A0B"
          d="M17.388 41.835a12.952 12.952 0 0 1 3.935-6.167 13.23 13.23 0 0 1 6.684-3.1l.304 1.922a11.246 11.246 0 0 0-5.681 2.636 11.01 11.01 0 0 0-3.345 5.242l-1.897-.533Zm25.655 1.63a12.833 12.833 0 0 1-1.992 9.01 13.142 13.142 0 0 1-7.556 5.428l-.519-1.878a11.171 11.171 0 0 0 6.423-4.614 10.909 10.909 0 0 0 1.693-7.658l1.951-.288Z"/>
    <rect width="41.95" height="2.944" fill="#3F7D20" rx="1.472"
          transform="matrix(.34614 .93818 -.94117 .33794 78.801 2.92)"/>
    <path stroke="#454955" stroke-width="3"
          d="M96.777 45.385c0 1.957-1.613 3.577-3.646 3.577s-3.646-1.62-3.646-3.577c0-1.956 1.613-3.576 3.646-3.576s3.646 1.62 3.646 3.576Z"/>
    <rect width="39.88" height="2.932" fill="#72B01D" rx="1.466"
          transform="matrix(.6479 -.76172 .77032 .63765 58.444 42.024)"/>
    <rect width="24.597" height="2.929" fill="#72B01D" rx="1.464"
          transform="matrix(.70637 -.70784 .71737 .6967 30.932 41.77)"/>
    <path stroke="#454955" stroke-width="3"
          d="M33.683 45.385c0 1.957-1.613 3.577-3.646 3.577s-3.646-1.62-3.646-3.577c0-1.956 1.613-3.576 3.646-3.576s3.646 1.62 3.646 3.576Z"/>
    <rect width="28.225" height="2.944" fill="#3F7D20" rx="1.472"
          transform="matrix(-.34614 -.93818 .94117 -.33793 54.548 44.357)"/>
    <path fill="#F3EFF5" stroke="#0D0A0B" stroke-width="3"
          d="M63.917 47.712c0 3.008-2.478 5.48-5.576 5.48-3.1 0-5.576-2.472-5.576-5.48 0-3.008 2.477-5.48 5.576-5.48 3.098 0 5.576 2.473 5.576 5.48Z"/>
    <rect width="14.118" height="2.916" fill="#454955" rx="1.458"
          transform="matrix(.9076 -.41984 .42928 .90317 39.475 19.888)"/>
    <rect width="14.118" height="2.916" fill="#0D0A0B" rx="1.458"
          transform="matrix(.9076 -.41984 .42928 .90317 70.138 5.927)"/>
    <rect width="13.381" height="2.948" fill="#72B01D" rx="1.474" transform="rotate(-84.932 60.702 -.645) skewX(.135)"/>
    <rect width="11.789" height="2.91" fill="#0D0A0B" rx="1.455"
          transform="matrix(.9852 .17137 -.17595 .9844 51.187 56.438)"/>
    <path fill="#000"
          d="M167.623 58V45.4h5.454c1.128 0 2.1.186 2.916.558.816.36 1.446.882 1.89 1.566.444.684.666 1.5.666 2.448 0 .936-.222 1.746-.666 2.43-.444.672-1.074 1.188-1.89 1.548-.816.36-1.788.54-2.916.54h-3.834l1.296-1.278V58h-2.916Zm8.01 0-3.15-4.572h3.114L178.783 58h-3.15Zm-5.094-4.464-1.296-1.368h3.672c.9 0 1.572-.192 2.016-.576.444-.396.666-.936.666-1.62 0-.696-.222-1.236-.666-1.62-.444-.384-1.116-.576-2.016-.576h-3.672l1.296-1.386v7.146Zm14.73 4.608c-1.032 0-1.95-.216-2.754-.648a5.044 5.044 0 0 1-1.89-1.764c-.456-.756-.684-1.614-.684-2.574 0-.972.228-1.83.684-2.574a4.861 4.861 0 0 1 1.89-1.764c.804-.432 1.722-.648 2.754-.648 1.02 0 1.932.216 2.736.648a4.743 4.743 0 0 1 1.89 1.746c.456.744.684 1.608.684 2.592 0 .96-.228 1.818-.684 2.574a4.872 4.872 0 0 1-1.89 1.764c-.804.432-1.716.648-2.736.648Zm0-2.304c.468 0 .888-.108 1.26-.324.372-.216.666-.522.882-.918.216-.408.324-.888.324-1.44 0-.564-.108-1.044-.324-1.44a2.322 2.322 0 0 0-.882-.918 2.463 2.463 0 0 0-1.26-.324c-.468 0-.888.108-1.26.324a2.45 2.45 0 0 0-.9.918c-.216.396-.324.876-.324 1.44 0 .552.108 1.032.324 1.44.228.396.528.702.9.918.372.216.792.324 1.26.324ZM198.238 58v-1.89l-.18-.414v-3.384c0-.6-.186-1.068-.558-1.404-.36-.336-.918-.504-1.674-.504a4.81 4.81 0 0 0-1.53.252 3.904 3.904 0 0 0-1.26.648l-1.008-1.962c.528-.372 1.164-.66 1.908-.864a8.54 8.54 0 0 1 2.268-.306c1.476 0 2.622.348 3.438 1.044.816.696 1.224 1.782 1.224 3.258V58h-2.628Zm-2.952.144c-.756 0-1.404-.126-1.944-.378-.54-.264-.954-.618-1.242-1.062a2.686 2.686 0 0 1-.432-1.494c0-.576.138-1.08.414-1.512.288-.432.738-.768 1.35-1.008.612-.252 1.41-.378 2.394-.378h2.574v1.638h-2.268c-.66 0-1.116.108-1.368.324-.24.216-.36.486-.36.81 0 .36.138.648.414.864.288.204.678.306 1.17.306.468 0 .888-.108 1.26-.324.372-.228.642-.558.81-.99l.432 1.296c-.204.624-.576 1.098-1.116 1.422-.54.324-1.236.486-2.088.486Zm12.35 0c-.912 0-1.734-.204-2.466-.612a4.689 4.689 0 0 1-1.746-1.746c-.42-.744-.63-1.62-.63-2.628 0-1.02.21-1.902.63-2.646a4.556 4.556 0 0 1 1.746-1.728c.732-.408 1.554-.612 2.466-.612.816 0 1.53.18 2.142.54.612.36 1.086.906 1.422 1.638.336.732.504 1.668.504 2.808 0 1.128-.162 2.064-.486 2.808-.324.732-.792 1.278-1.404 1.638-.6.36-1.326.54-2.178.54Zm.486-2.304c.456 0 .87-.108 1.242-.324.372-.216.666-.522.882-.918.228-.408.342-.888.342-1.44 0-.564-.114-1.044-.342-1.44a2.322 2.322 0 0 0-.882-.918 2.428 2.428 0 0 0-1.242-.324c-.468 0-.888.108-1.26.324a2.45 2.45 0 0 0-.9.918c-.216.396-.324.876-.324 1.44 0 .552.108 1.032.324 1.44.228.396.528.702.9.918.372.216.792.324 1.26.324ZM210.66 58v-1.98l.054-2.88-.18-2.862v-5.634h2.808V58h-2.682Zm10.72 0v-9.9c0-1.092.324-1.962.972-2.61.648-.66 1.572-.99 2.772-.99.408 0 .798.042 1.17.126.384.084.708.216.972.396l-.738 2.034a1.913 1.913 0 0 0-.522-.252 2.04 2.04 0 0 0-.612-.09c-.408 0-.726.12-.954.36-.216.228-.324.576-.324 1.044v.9l.072 1.206V58h-2.808Zm-1.494-7.308v-2.16h6.714v2.16h-6.714Zm12.598 7.452c-1.032 0-1.95-.216-2.754-.648a5.044 5.044 0 0 1-1.89-1.764c-.456-.756-.684-1.614-.684-2.574 0-.972.228-1.83.684-2.574a4.861 4.861 0 0 1 1.89-1.764c.804-.432 1.722-.648 2.754-.648 1.02 0 1.932.216 2.736.648a4.743 4.743 0 0 1 1.89 1.746c.456.744.684 1.608.684 2.592 0 .96-.228 1.818-.684 2.574a4.872 4.872 0 0 1-1.89 1.764c-.804.432-1.716.648-2.736.648Zm0-2.304c.468 0 .888-.108 1.26-.324.372-.216.666-.522.882-.918.216-.408.324-.888.324-1.44 0-.564-.108-1.044-.324-1.44a2.322 2.322 0 0 0-.882-.918 2.463 2.463 0 0 0-1.26-.324c-.468 0-.888.108-1.26.324a2.45 2.45 0 0 0-.9.918c-.216.396-.324.876-.324 1.44 0 .552.108 1.032.324 1.44.228.396.528.702.9.918.372.216.792.324 1.26.324Zm7.187 2.16v-9.684h2.682v2.736l-.378-.792c.288-.684.75-1.2 1.386-1.548.636-.36 1.41-.54 2.322-.54v2.592a3.287 3.287 0 0 0-.324-.018 2.47 2.47 0 0 0-.306-.018c-.768 0-1.392.222-1.872.666-.468.432-.702 1.11-.702 2.034V58h-2.808Zm14.074 3.636a4.916 4.916 0 0 1-1.494-.234c-.492-.156-.894-.372-1.206-.648l1.026-1.998a2.438 2.438 0 0 0 1.584.612c.396 0 .708-.096.936-.288.24-.18.456-.486.648-.918l.504-1.188.216-.306 3.474-8.352h2.7l-4.374 10.278c-.312.78-.672 1.392-1.08 1.836-.396.444-.84.756-1.332.936-.48.18-1.014.27-1.602.27Zm1.656-3.258-4.32-10.062h2.898l3.348 8.1-1.926 1.962Zm12.222-.234c-1.032 0-1.95-.216-2.754-.648a5.044 5.044 0 0 1-1.89-1.764c-.456-.756-.684-1.614-.684-2.574 0-.972.228-1.83.684-2.574a4.861 4.861 0 0 1 1.89-1.764c.804-.432 1.722-.648 2.754-.648 1.02 0 1.932.216 2.736.648a4.743 4.743 0 0 1 1.89 1.746c.456.744.684 1.608.684 2.592 0 .96-.228 1.818-.684 2.574a4.872 4.872 0 0 1-1.89 1.764c-.804.432-1.716.648-2.736.648Zm0-2.304c.468 0 .888-.108 1.26-.324.372-.216.666-.522.882-.918.216-.408.324-.888.324-1.44 0-.564-.108-1.044-.324-1.44a2.322 2.322 0 0 0-.882-.918 2.463 2.463 0 0 0-1.26-.324c-.468 0-.888.108-1.26.324a2.45 2.45 0 0 0-.9.918c-.216.396-.324.876-.324 1.44 0 .552.108 1.032.324 1.44.228.396.528.702.9.918.372.216.792.324 1.26.324Zm11.273 2.304c-.804 0-1.524-.156-2.16-.468a3.335 3.335 0 0 1-1.458-1.422c-.348-.648-.522-1.47-.522-2.466v-5.472h2.808v5.058c0 .804.168 1.398.504 1.782.348.372.834.558 1.458.558.432 0 .816-.09 1.152-.27.336-.192.6-.48.792-.864.192-.396.288-.888.288-1.476v-4.788h2.808V58h-2.664v-2.664l.486.774a3.36 3.36 0 0 1-1.44 1.53 4.259 4.259 0 0 1-2.052.504ZM167 35l-5-2.387v5.774L167 36v-1Zm120.333.5a2.667 2.667 0 1 0 5.334 0 2.667 2.667 0 0 0-5.334 0ZM166.5 36H290v-1H166.5v1Z"/>
</svg>
