<svg xmlns="http://www.w3.org/2000/svg" width="262" height="32" fill="none" viewBox="0 0 262 32">
    <rect width="19.658" height="1.457" fill="#72B01D" rx=".728"
          transform="matrix(.94117 -.33794 .34614 .93818 24.166 12.466)"/>
    <rect width="11.793" height=".582" x="34.772" y="31.418" fill="#0D0A0B" rx=".291"/>
    <rect width="6.45" height=".582" x=".586" y="29.673" fill="#0D0A0B" rx=".291"/>
    <rect width="4.691" height=".582" x="1.173" y="27.928" fill="#0D0A0B" rx=".291"/>
    <rect width="2.932" height=".582" x="1.759" y="26.183" fill="#0D0A0B" rx=".291"/>
    <rect width="14.953" height=".582" y="31.418" fill="#0D0A0B" rx=".291"/>
    <path fill="#F3EFF5" stroke="#0D0A0B" stroke-width="1.5"
          d="M55.25 22.693c0 4.716-3.879 8.557-8.684 8.557-4.806 0-8.685-3.84-8.685-8.557 0-4.717 3.879-8.558 8.684-8.558 4.806 0 8.685 3.841 8.685 8.558Z"/>
    <rect width="1.759" height=".582" x="2.345" y="24.438" fill="#0D0A0B" rx=".291"/>
    <path fill="#0D0A0B"
          d="M41.333 26.622a6.414 6.414 0 0 1-.576-6.97l.872.455a5.452 5.452 0 0 0 .489 5.925l-.785.59Zm8.58-9.512a6.504 6.504 0 0 1 2.914 3.603 6.406 6.406 0 0 1-.248 4.604l-.902-.393a5.445 5.445 0 0 0 .211-3.914 5.528 5.528 0 0 0-2.477-3.063l.502-.838Z"/>
    <path fill="#F3EFF5" stroke="#0D0A0B" stroke-width="1.5"
          d="M23.703 22.693c0 4.716-3.879 8.557-8.685 8.557-4.806 0-8.684-3.84-8.684-8.557 0-4.717 3.878-8.558 8.684-8.558 4.806 0 8.685 3.841 8.685 8.558Z"/>
    <path fill="#0D0A0B"
          d="M8.694 20.918a6.476 6.476 0 0 1 1.967-3.084 6.614 6.614 0 0 1 3.343-1.55l.152.96a5.622 5.622 0 0 0-2.84 1.319 5.504 5.504 0 0 0-1.673 2.62l-.95-.265Zm12.828.815a6.417 6.417 0 0 1-.996 4.504 6.571 6.571 0 0 1-3.778 2.714l-.26-.938a5.586 5.586 0 0 0 3.212-2.307 5.454 5.454 0 0 0 .846-3.83l.976-.143Z"/>
    <rect width="20.975" height="1.472" fill="#3F7D20" rx=".736"
          transform="matrix(.34614 .93818 -.94117 .33794 39.4 1.46)"/>
    <path stroke="#454955" stroke-width="1.5"
          d="M48.388 22.693c0 .978-.806 1.788-1.823 1.788-1.016 0-1.823-.81-1.823-1.788 0-.979.807-1.789 1.823-1.789 1.017 0 1.823.81 1.823 1.789Z"/>
    <rect width="19.94" height="1.466" fill="#72B01D" rx=".733"
          transform="matrix(.6479 -.76172 .77032 .63765 29.222 21.012)"/>
    <rect width="12.298" height="1.464" fill="#72B01D" rx=".732"
          transform="matrix(.70637 -.70784 .71737 .6967 15.466 20.885)"/>
    <path stroke="#454955" stroke-width="1.5"
          d="M16.841 22.693c0 .978-.806 1.788-1.823 1.788-1.016 0-1.823-.81-1.823-1.788 0-.979.807-1.789 1.823-1.789 1.017 0 1.823.81 1.823 1.789Z"/>
    <rect width="14.113" height="1.472" fill="#3F7D20" rx=".736"
          transform="matrix(-.34614 -.93818 .94117 -.33793 27.274 22.178)"/>
    <path fill="#F3EFF5" stroke="#0D0A0B" stroke-width="1.5"
          d="M31.958 23.856c0 1.504-1.238 2.74-2.788 2.74-1.55 0-2.788-1.236-2.788-2.74 0-1.504 1.239-2.74 2.788-2.74 1.55 0 2.788 1.236 2.788 2.74Z"/>
    <rect width="7.059" height="1.458" fill="#454955" rx=".729"
          transform="matrix(.9076 -.41984 .42928 .90317 19.738 9.944)"/>
    <rect width="7.059" height="1.458" fill="#0D0A0B" rx=".729"
          transform="matrix(.9076 -.41984 .42928 .90317 35.069 2.964)"/>
    <rect width="6.69" height="1.474" fill="#72B01D" rx=".737" transform="rotate(-84.932 30.351 -.322) skewX(.135)"/>
    <rect width="5.894" height="1.455" fill="#0D0A0B" rx=".728"
          transform="matrix(.9852 .17137 -.17595 .9844 25.593 28.219)"/>
    <path fill="#000"
          d="M70.136 25c.131 0 .262-.13.392-.392.131-.261.196-.69.196-1.288V9.88c0-.597-.065-1.017-.196-1.26-.13-.261-.261-.401-.392-.42h10.472c1.456 0 2.595.168 3.416.504.822.336 1.4.821 1.736 1.456.336.616.504 1.344.504 2.184 0 .672-.121 1.241-.364 1.708a2.904 2.904 0 0 1-.868 1.064 4.326 4.326 0 0 1-1.064.588v.056c1.214.28 2.128.784 2.744 1.512.616.71.924 1.661.924 2.856 0 .803-.158 1.577-.476 2.324-.317.747-.905 1.363-1.764 1.848-.84.467-2.062.7-3.668.7H70.136Zm6.02-3.108h4.2c1.064 0 1.82-.15 2.268-.448.467-.317.7-.821.7-1.512 0-.653-.252-1.157-.756-1.512-.504-.373-1.334-.56-2.492-.56h-3.892c-.56 0-.896.037-1.008.112-.093.075-.14.327-.14.756v2.324c0 .41.047.653.14.728.112.075.439.112.98.112Zm.028-6.888h3.304c.896 0 1.531-.15 1.904-.448.392-.317.588-.784.588-1.4 0-.616-.186-1.073-.56-1.372-.354-.299-.989-.448-1.904-.448h-3.36c-.56 0-.886.037-.98.112-.093.056-.14.299-.14.728v1.988c0 .41.047.653.14.728.112.075.448.112 1.008.112ZM89.71 25c.131 0 .262-.13.393-.392.13-.261.196-.69.196-1.288v-9.744c0-.597-.066-1.027-.197-1.288-.112-.261-.233-.392-.364-.392h4.537V23.32c0 .597.055 1.027.167 1.288.131.261.262.392.393.392H89.71Zm2.27-15.232c-.691 0-1.242-.187-1.653-.56-.41-.373-.615-.887-.615-1.54s.195-1.167.588-1.54c.41-.373.97-.56 1.68-.56.709 0 1.26.187 1.651.56.411.373.617.887.617 1.54s-.206 1.167-.617 1.54c-.391.373-.942.56-1.651.56Zm12.584 15.512c-1.942 0-3.472-.299-4.592-.896-1.102-.597-1.876-1.41-2.324-2.436-.448-1.027-.672-2.184-.672-3.472 0-2.277.616-3.985 1.848-5.124 1.25-1.139 3.07-1.708 5.46-1.708 1.25 0 2.389.093 3.416.28 1.045.187 1.81.364 2.296.532v.84l.56 2.996c-.411-.392-1.158-.793-2.24-1.204-1.064-.43-2.343-.644-3.836-.644-.803 0-1.475.15-2.016.448-.523.28-.915.719-1.176 1.316-.243.597-.364 1.363-.364 2.296 0 .915.14 1.661.42 2.24.28.579.737.999 1.372 1.26.634.261 1.474.392 2.52.392 1.325 0 2.417-.168 3.276-.504.877-.355 1.465-.7 1.764-1.036v.84l.28 2.24c-.355.299-1.055.597-2.1.896-1.027.299-2.324.448-3.892.448Zm8.671 6.552c-1.12 0-2.007-.112-2.66-.336-.653-.224-1.073-.439-1.26-.644l.56-4.34v-.84c.224.485.532.99.924 1.512a5.5 5.5 0 0 0 1.316 1.316c.504.355 1.027.532 1.568.532.373 0 .709-.084 1.008-.252.317-.15.607-.392.868-.728.28-.336.551-.756.812-1.26.373-.747.607-1.26.7-1.54-.112-.15-.299-.495-.56-1.036-.243-.541-.541-1.195-.896-1.96-.336-.784-.7-1.605-1.092-2.464-.373-.877-.737-1.727-1.092-2.548a88.375 88.375 0 0 0-.924-2.184 72.596 72.596 0 0 0-.588-1.4c-.261-.635-.523-1.083-.784-1.344-.28-.28-.495-.42-.644-.42h5.74c-.093 0-.159.13-.196.392-.037.261.028.719.196 1.372.093.355.243.859.448 1.512.205.635.439 1.335.7 2.1.28.765.56 1.54.84 2.324.299.784.569 1.503.812 2.156h.028c.261-.69.532-1.437.812-2.24.299-.821.588-1.624.868-2.408.299-.784.551-1.484.756-2.1.224-.616.392-1.083.504-1.4.205-.635.289-1.073.252-1.316-.037-.261-.121-.392-.252-.392h5.572c-.149 0-.355.13-.616.392-.243.243-.476.672-.7 1.288l-.644 1.652c-.299.765-.653 1.643-1.064 2.632-.411.99-.84 2.007-1.288 3.052a125.282 125.282 0 0 1-1.316 2.968c-.411.915-.775 1.67-1.092 2.268-.635 1.232-1.297 2.268-1.988 3.108-.691.84-1.484 1.475-2.38 1.904-.896.448-1.979.672-3.248.672Zm21.626-6.552c-1.942 0-3.472-.299-4.592-.896-1.102-.597-1.876-1.41-2.324-2.436-.448-1.027-.672-2.184-.672-3.472 0-2.277.616-3.985 1.848-5.124 1.25-1.139 3.07-1.708 5.46-1.708 1.25 0 2.389.093 3.416.28 1.045.187 1.81.364 2.296.532v.84l.56 2.996c-.411-.392-1.158-.793-2.24-1.204-1.064-.43-2.343-.644-3.836-.644-.803 0-1.475.15-2.016.448-.523.28-.915.719-1.176 1.316-.243.597-.364 1.363-.364 2.296 0 .915.14 1.661.42 2.24.28.579.737.999 1.372 1.26.634.261 1.474.392 2.52.392 1.325 0 2.417-.168 3.276-.504.877-.355 1.465-.7 1.764-1.036v.84l.28 2.24c-.355.299-1.055.597-2.1.896-1.027.299-2.324.448-3.892.448Zm8.503-.28c.131 0 .261-.13.392-.392.131-.261.196-.69.196-1.288V7.36c0-.597-.065-1.027-.196-1.288-.112-.261-.233-.392-.364-.392 1.232 0 2.231-.056 2.996-.168.784-.13 1.297-.261 1.54-.392v18.2c0 .597.056 1.027.168 1.288.131.261.261.392.392.392h-5.124Zm14.986.28c-1.475 0-2.707-.15-3.696-.448-.971-.317-1.746-.765-2.324-1.344a5.053 5.053 0 0 1-1.232-2.156c-.243-.84-.364-1.792-.364-2.856 0-2.11.588-3.78 1.764-5.012 1.176-1.232 2.977-1.848 5.404-1.848 1.418 0 2.566.196 3.444.588.896.392 1.577.915 2.044 1.568.466.653.784 1.381.952 2.184.186.784.28 1.577.28 2.38v1.316c0-.056-.262-.112-.784-.168-.504-.075-1.363-.112-2.576-.112h-6.496c0 1.027.308 1.801.924 2.324.634.504 1.661.756 3.08.756 1.194 0 2.258-.14 3.192-.42.952-.299 1.642-.579 2.072-.84v.84l.28 2.128c-.355.243-1.036.495-2.044.756-1.008.243-2.315.364-3.92.364Zm-2.548-8.316h4.844c0-.41-.094-.812-.28-1.204a2.063 2.063 0 0 0-.84-.952c-.392-.261-.934-.392-1.624-.392-.691 0-1.251.103-1.68.308-.411.205-.719.457-.924.756a1.72 1.72 0 0 0-.28.924c0 .187.056.327.168.42.112.093.317.14.616.14ZM173.907 25c.13 0 .252-.13.364-.392.13-.261.196-.69.196-1.288V9.88c0-.597-.066-1.017-.196-1.26-.131-.261-.262-.401-.392-.42h9.184c1.642 0 2.949.205 3.92.616.989.41 1.698 1.017 2.128 1.82.448.784.672 1.764.672 2.94 0 .84-.159 1.587-.476 2.24a4.113 4.113 0 0 1-1.26 1.596c-.542.41-1.148.71-1.82.896v.084c.746.299 1.53.887 2.352 1.764a17.15 17.15 0 0 1 2.212 2.884c.429.69.821 1.185 1.176 1.484.354.299.625.457.812.476h-7.056c.224-.019.401-.14.532-.364.149-.243.102-.635-.14-1.176-.392-.896-.868-1.67-1.428-2.324a5.583 5.583 0 0 0-1.96-1.484c-.728-.355-1.568-.532-2.52-.532h-.308c-.579 0-.915.047-1.008.14-.094.093-.14.327-.14.7v3.36c0 .597.065 1.027.196 1.288.13.261.261.392.392.392h-5.432Zm5.992-8.708h2.296c1.176 0 2.025-.205 2.548-.616.522-.43.784-1.13.784-2.1 0-.43-.094-.812-.28-1.148-.187-.336-.504-.597-.952-.784-.43-.187-1.036-.28-1.82-.28h-2.576c-.579 0-.915.028-1.008.084-.094.056-.14.27-.14.644v3.444c0 .373.046.597.14.672.093.056.429.084 1.008.084ZM194 25c.13 0 .261-.13.392-.392.13-.261.196-.69.196-1.288v-9.744c0-.597-.066-1.027-.196-1.288-.112-.261-.234-.392-.364-.392h4.536V23.32c0 .597.056 1.027.168 1.288.13.261.261.392.392.392H194Zm2.268-15.232c-.691 0-1.242-.187-1.652-.56-.411-.373-.616-.887-.616-1.54s.196-1.167.588-1.54c.41-.373.97-.56 1.68-.56.709 0 1.26.187 1.652.56.41.373.616.887.616 1.54s-.206 1.167-.616 1.54c-.392.373-.943.56-1.652.56Zm11.464 15.512c-1.662 0-2.968-.299-3.92-.896a4.896 4.896 0 0 1-1.988-2.436c-.374-1.027-.56-2.184-.56-3.472 0-1.307.186-2.473.56-3.5a4.896 4.896 0 0 1 1.988-2.436c.952-.616 2.258-.924 3.92-.924.56 0 1.064.047 1.512.14.466.093.877.224 1.232.392.373.15.7.345.98.588l.056-.028-.056-.532V7.36c0-.597-.066-1.017-.196-1.26-.112-.261-.234-.401-.364-.42h4.536v17.64c0 .597.056 1.027.168 1.288.13.261.261.392.392.392h-4.536v-.364l.084-.532-.084-.028c-.28.243-.607.457-.98.644a5.894 5.894 0 0 1-1.26.392 6.12 6.12 0 0 1-1.484.168Zm.476-2.828c.616 0 1.129-.093 1.54-.28a2.384 2.384 0 0 0 1.008-.784c.261-.355.438-.775.532-1.26a7.617 7.617 0 0 0 .168-1.652c0-.597-.056-1.139-.168-1.624a3.68 3.68 0 0 0-.532-1.288 2.236 2.236 0 0 0-1.008-.84c-.411-.205-.924-.308-1.54-.308-.896 0-1.624.308-2.184.924-.542.616-.812 1.67-.812 3.164 0 .99.121 1.773.364 2.352.242.579.588.99 1.036 1.232.448.243.98.364 1.596.364Zm17.652 2.828c-1.474 0-2.706-.15-3.696-.448-.97-.317-1.745-.765-2.324-1.344a5.074 5.074 0 0 1-1.232-2.156c-.242-.84-.364-1.792-.364-2.856 0-2.11.588-3.78 1.764-5.012 1.176-1.232 2.978-1.848 5.404-1.848 1.419 0 2.567.196 3.444.588.896.392 1.578.915 2.044 1.568a5.73 5.73 0 0 1 .952 2.184c.187.784.28 1.577.28 2.38v1.316c0-.056-.261-.112-.784-.168-.504-.075-1.362-.112-2.576-.112h-6.496c0 1.027.308 1.801.924 2.324.635.504 1.662.756 3.08.756 1.195 0 2.259-.14 3.192-.42.952-.299 1.643-.579 2.072-.84v.84l.28 2.128c-.354.243-1.036.495-2.044.756-1.008.243-2.314.364-3.92.364Zm-2.548-8.316h4.844c0-.41-.093-.812-.28-1.204a2.063 2.063 0 0 0-.84-.952c-.392-.261-.933-.392-1.624-.392-.69 0-1.25.103-1.68.308-.41.205-.718.457-.924.756-.186.299-.28.607-.28.924 0 .187.056.327.168.42.112.093.318.14.616.14Z"/>
</svg>
